<?xml version="1.0" standalone="no"?>
<!DOCTYPE svg PUBLIC "-//W3C//DTD SVG 20010904//EN"
 "http://www.w3.org/TR/2001/REC-SVG-20010904/DTD/svg10.dtd">
<svg version="1.0" xmlns="http://www.w3.org/2000/svg"
 width="376.000000pt" height="376.000000pt" viewBox="0 0 376.000000 376.000000"
 preserveAspectRatio="xMidYMid meet">

<g transform="translate(0.000000,376.000000) scale(0.100000,-0.100000)"
fill="#FFFFFC" stroke="none">
<path d="M852 3547 l-22 -23 0 -1592 0 -1592 -199 0 c-185 0 -200 -1 -225 -21
-33 -26 -36 -79 -6 -109 19 -19 33 -20 500 -20 l481 0 24 25 c30 29 32 64 6
96 -19 24 -23 24 -225 27 l-206 3 0 1187 0 1187 353 353 352 352 473 0 472 0
0 -303 0 -303 -56 -17 c-117 -36 -222 -129 -277 -245 -30 -63 -32 -74 -32
-182 0 -111 1 -117 36 -191 44 -91 110 -161 200 -209 62 -34 68 -35 192 -38
l127 -4 76 36 c232 110 326 376 213 606 -56 113 -184 215 -296 236 l-33 6 0
357 0 358 -23 21 -23 22 -930 0 -931 0 -21 -23z m618 -130 c0 -1 -110 -112
-245 -247 l-245 -245 0 248 0 247 245 0 c135 0 245 -1 245 -3z m1363 -776 c59
-29 111 -81 144 -144 36 -70 39 -179 6 -247 -54 -110 -139 -170 -253 -178 -98
-7 -160 17 -231 87 -131 132 -119 336 27 448 85 65 214 79 307 34z"/>
</g>
</svg>
