<?xml version="1.0" standalone="no"?>
<!DOCTYPE svg PUBLIC "-//W3C//DTD SVG 20010904//EN"
 "http://www.w3.org/TR/2001/REC-SVG-20010904/DTD/svg10.dtd">
<svg version="1.0" xmlns="http://www.w3.org/2000/svg"
 width="376.000000pt" height="376.000000pt" viewBox="0 0 376.000000 376.000000"
 preserveAspectRatio="xMidYMid meet">

<g transform="translate(0.000000,376.000000) scale(0.100000,-0.100000)"
fill="#FFFFFC" stroke="none">
<path d="M852 3547 l-22 -23 0 -1592 0 -1592 -199 0 c-185 0 -200 -1 -225 -21
-33 -26 -36 -79 -6 -109 19 -19 33 -20 500 -20 l481 0 24 25 c30 29 32 64 6
96 -19 24 -23 24 -225 27 l-206 3 0 1187 0 1187 353 353 352 352 473 0 472 0
0 -305 0 -305 75 0 75 0 0 358 0 359 -23 21 -23 22 -930 0 -931 0 -21 -23z
m618 -130 c0 -1 -110 -112 -245 -247 l-245 -245 0 248 0 247 245 0 c135 0 245
-1 245 -3z"/>
</g>
</svg>
