<?xml version="1.0" standalone="no"?>
<!DOCTYPE svg PUBLIC "-//W3C//DTD SVG 20010904//EN"
 "http://www.w3.org/TR/2001/REC-SVG-20010904/DTD/svg10.dtd">
<svg version="1.0" xmlns="http://www.w3.org/2000/svg"
 width="376.000000pt" height="376.000000pt" viewBox="0 0 376.000000 376.000000"
 preserveAspectRatio="xMidYMid meet">

<g transform="translate(0.000000,376.000000) scale(0.100000,-0.100000)"
fill="#FFFFFC" stroke="none">
<path d="M852 3547 l-22 -23 0 -1592 0 -1592 -199 0 c-185 0 -200 -1 -225 -21
-33 -26 -36 -79 -6 -109 19 -19 33 -20 500 -20 l481 0 24 25 c30 29 32 64 6
96 -19 24 -23 24 -225 27 l-206 3 0 1187 0 1187 353 353 352 352 473 0 472 0
0 -303 0 -303 -56 -17 c-117 -36 -222 -129 -277 -245 -30 -63 -32 -74 -32
-182 0 -111 1 -117 36 -191 22 -46 55 -94 86 -125 54 -54 148 -109 206 -119
l37 -7 0 -482 0 -482 -185 -222 c-187 -226 -200 -246 -175 -291 16 -30 64 -45
93 -29 13 7 91 94 172 193 81 99 153 186 160 193 10 12 40 -19 165 -170 186
-223 179 -215 212 -223 22 -6 33 -1 58 23 17 18 30 41 30 55 0 18 -54 89 -190
251 l-190 225 0 305 c0 168 2 306 5 306 3 0 119 -43 258 -95 140 -52 260 -95
269 -95 8 0 27 9 42 21 31 25 36 79 8 107 -9 9 -144 64 -300 122 l-282 105 2
89 3 89 40 12 c172 51 298 193 327 369 30 184 -76 387 -244 466 -35 17 -78 33
-95 36 l-33 6 0 357 0 358 -23 21 -23 22 -930 0 -931 0 -21 -23z m618 -130 c0
-1 -110 -112 -245 -247 l-245 -245 0 248 0 247 245 0 c135 0 245 -1 245 -3z
m1363 -776 c59 -29 111 -81 144 -144 36 -70 39 -179 6 -247 -54 -110 -139
-170 -253 -178 -98 -7 -160 17 -231 87 -131 132 -119 336 27 448 85 65 214 79
307 34z"/>
</g>
</svg>
