<?xml version="1.0" standalone="no"?>
<!DOCTYPE svg PUBLIC "-//W3C//DTD SVG 20010904//EN"
 "http://www.w3.org/TR/2001/REC-SVG-20010904/DTD/svg10.dtd">
<svg version="1.0" xmlns="http://www.w3.org/2000/svg"
 width="512.000000pt" height="512.000000pt" viewBox="0 0 512.000000 512.000000"
 preserveAspectRatio="xMidYMid meet">

<g transform="translate(0.000000,512.000000) scale(0.100000,-0.100000)"
fill="#000000" stroke="none">
<path d="M2345 5095 l-25 -24 0 -696 0 -695 -56 0 c-87 0 -133 -18 -189 -75
-87 -87 -100 -201 -33 -297 19 -28 19 -28 0 -55 -55 -80 -55 -186 0 -265 19
-28 19 -28 0 -55 -10 -16 -24 -43 -30 -62 -23 -66 -11 -144 30 -203 19 -28 19
-28 0 -55 -67 -97 -54 -211 33 -298 51 -52 102 -75 164 -75 17 0 31 -4 31 -8
0 -10 -66 -73 -250 -238 -299 -267 -439 -492 -485 -779 -36 -222 -3 -440 97
-639 53 -107 88 -156 176 -248 324 -339 805 -423 1222 -214 40 20 93 51 118
68 69 48 196 172 251 247 201 273 255 640 140 967 -78 225 -207 394 -492 647
-89 80 -173 156 -186 171 l-24 26 38 0 c68 0 117 22 170 75 81 80 96 170 47
269 l-29 56 29 56 c19 39 28 72 28 104 0 32 -9 65 -28 104 l-29 56 29 56 c19
39 28 72 28 104 0 32 -9 65 -28 104 l-29 56 29 56 c47 95 34 183 -39 264 -51
57 -108 80 -195 80 l-58 0 0 695 0 696 -25 24 c-24 25 -26 25 -215 25 -189 0
-191 0 -215 -25z m295 -775 l0 -640 -80 0 -80 0 0 640 0 640 80 0 80 0 0 -640z
m295 -825 c16 -15 25 -36 25 -55 0 -19 -9 -40 -25 -55 l-24 -25 -351 0 -351 0
-24 25 c-16 15 -25 36 -25 55 0 19 9 40 25 55 l24 25 351 0 351 0 24 -25z m0
-320 c16 -15 25 -36 25 -55 0 -19 -9 -40 -25 -55 l-24 -25 -351 0 -351 0 -24
25 c-16 15 -25 36 -25 55 0 19 9 40 25 55 l24 25 351 0 351 0 24 -25z m0 -320
c16 -15 25 -36 25 -55 0 -19 -9 -40 -25 -55 l-24 -25 -351 0 -351 0 -24 25
c-16 15 -25 36 -25 55 0 19 9 40 25 55 l24 25 351 0 351 0 24 -25z m0 -320
c16 -15 25 -36 25 -55 0 -19 -9 -40 -25 -55 l-24 -25 -351 0 -351 0 -24 25
c-16 15 -25 36 -25 55 0 19 9 40 25 55 l24 25 351 0 351 0 24 -25z m-265 -324
c19 -48 107 -142 265 -283 248 -223 338 -329 415 -489 65 -136 83 -220 84
-389 1 -119 -3 -159 -21 -225 -44 -163 -122 -297 -237 -410 -345 -341 -900
-337 -1241 9 -263 266 -328 672 -165 1015 77 160 174 274 415 488 148 132 245
236 265 284 l12 29 98 0 98 0 12 -29z"/>
<path d="M2442 1947 c-48 -45 -141 -130 -207 -189 -175 -156 -256 -254 -319
-389 -57 -120 -71 -186 -70 -334 1 -112 4 -141 27 -210 38 -115 90 -199 182
-290 91 -91 175 -144 290 -182 71 -23 96 -26 215 -26 119 0 144 3 215 26 115
38 199 91 290 182 92 91 144 175 182 290 23 69 26 98 27 210 1 148 -13 214
-70 334 -63 135 -140 228 -316 386 -68 61 -162 147 -210 193 -115 110 -121
110 -236 -1z m204 -188 c291 -262 357 -335 414 -454 154 -322 -1 -687 -340
-801 -76 -26 -244 -26 -320 0 -153 51 -275 156 -340 291 -122 255 -57 521 186
757 78 74 307 278 315 278 3 0 41 -32 85 -71z"/>
</g>
</svg>
